<svg xmlns="http://www.w3.org/2000/svg" width="32" height="29" viewBox="0 0 32 29">
  <g id="chicken" transform="translate(-6260.107 -6888.858)">
    <g id="Intersection_12" data-name="Intersection 12" transform="matrix(0.017, 1, -1, 0.017, 6291.3, 6898.362)" fill="#fff">
      <path d="M 2.745553255081177 4.58866024017334 C 1.718586683273315 4.58866024017334 0.8130174875259399 3.753408193588257 0.5131598711013794 2.544330358505249 C 0.8130174875259399 1.335252523422241 1.718586683273315 0.5000003576278687 2.745553255081177 0.5000003576278687 C 3.772982597351074 0.5000003576278687 4.678637504577637 1.335446953773499 4.978157043457031 2.545029401779175 C 4.67817497253418 3.753695964813232 3.772519588470459 4.58866024017334 2.745553255081177 4.58866024017334 Z" stroke="none"/>
      <path d="M 2.745553255081177 1.000000476837158 C 1.983618497848511 1.000000476837158 1.301126003265381 1.624913930892944 1.031017780303955 2.544330358505249 C 1.301126003265381 3.463747024536133 1.983618497848511 4.08866024017334 2.745553255081177 4.08866024017334 C 3.507524967193604 4.08866024017334 4.190099716186523 3.463974475860596 4.460308074951172 2.544896841049194 C 4.19040060043335 1.625197172164917 3.507804393768311 1.000000476837158 2.745553255081177 1.000000476837158 M 2.745553255081177 4.76837158203125e-07 C 4.066963195800781 4.76837158203125e-07 5.176923274993896 1.081470489501953 5.491302967071533 2.545150279998779 C 5.17637300491333 4.008030414581299 4.066483020782471 5.08866024017334 2.745553255081177 5.08866024017334 C 1.424753189086914 5.08866024017334 0.3147430419921875 4.007530212402344 3.337860107421875e-06 2.544330358505249 C 0.3147430419921875 1.081120491027832 1.424753189086914 4.76837158203125e-07 2.745553255081177 4.76837158203125e-07 Z" stroke="none" fill="#707070"/>
    </g>
    <g id="Union_16" data-name="Union 16" transform="translate(6281.54 6888.858)" fill="#fff">
      <path d="M 2.739521265029907 5.234560012817383 L 2.739501237869263 5.234560012817383 C 1.950071215629578 5.234620094299316 1.209251284599304 4.80111026763916 0.8061312437057495 4.103209972381592 C 0.319915384054184 3.260938882827759 0.4216026365756989 2.216590166091919 1.044220209121704 1.516326069831848 C 1.184002757072449 1.487664103507996 1.32697582244873 1.473180174827576 1.4708012342453 1.473180174827576 C 1.656881213188171 1.473180174827576 1.843441247940063 1.497380137443542 2.025291204452515 1.545120120048523 L 2.363171339035034 1.63381016254425 L 2.562681198120117 1.347060203552246 C 2.834251642227173 0.9567198753356934 3.219965934753418 0.6671760678291321 3.659013509750366 0.5213755369186401 C 4.094048023223877 0.6660040020942688 4.477368831634521 0.9522453546524048 4.748621463775635 1.337730169296265 L 4.944871425628662 1.616620182991028 L 5.276151180267334 1.535720109939575 C 5.446151256561279 1.494200110435486 5.620171070098877 1.473150134086609 5.793381214141846 1.473150134086609 C 5.937141895294189 1.473150134086609 6.080098628997803 1.487647175788879 6.21992015838623 1.516323804855347 C 6.842537879943848 2.216588020324707 6.944223880767822 3.260944366455078 6.457941055297852 4.103330135345459 C 6.055121421813965 4.800710201263428 5.314781188964844 5.234040260314941 4.525881290435791 5.234100341796875 C 4.381703853607178 5.234115600585938 4.238336086273193 5.219519138336182 4.098065853118896 5.19062614440918 C 4.072512149810791 5.16185998916626 4.047731399536133 5.132383823394775 4.023871421813965 5.102360248565674 L 3.632321357727051 4.60968017578125 L 3.240911245346069 5.102470397949219 C 3.21688437461853 5.132718086242676 3.191928148269653 5.162413597106934 3.166201829910278 5.191379070281982 C 3.026370048522949 5.220056056976318 2.883373498916626 5.234552383422852 2.739521265029907 5.234560012817383 Z" stroke="none"/>
      <path d="M 2.739501237869263 4.734560012817383 C 2.793566226959229 4.734556198120117 2.84745717048645 4.731884479522705 2.900943994522095 4.726572513580322 L 3.632211208343506 3.805910110473633 L 4.363438129425049 4.725998878479004 C 4.417260646820068 4.731390476226807 4.471473217010498 4.734104156494141 4.525851249694824 4.734100341796875 C 5.136731147766113 4.734050273895264 5.711191177368164 4.396490097045898 6.024911403656006 3.853350162506104 C 6.373318195343018 3.249820709228516 6.335855484008789 2.515298366546631 5.952112197875977 1.980875253677368 C 5.767566680908203 1.962841153144836 5.578305721282959 1.976624369621277 5.394761085510254 2.021440267562866 L 4.732211112976074 2.183240175247192 L 4.339721202850342 1.625480175018311 C 4.163763046264648 1.375434637069702 3.927661657333374 1.179706811904907 3.658917188644409 1.057660937309265 C 3.387397527694702 1.18084454536438 3.149520635604858 1.379063725471497 2.973111152648926 1.632610201835632 L 2.574101209640503 2.206120252609253 L 1.898341298103333 2.028730154037476 C 1.705798268318176 1.978188037872314 1.50636613368988 1.961924910545349 1.312013387680054 1.980898022651672 C 0.9283430576324463 2.51530909538269 0.890832781791687 3.249836206436157 1.23910129070282 3.853130102157593 C 1.553161263465881 4.396860122680664 2.128071308135986 4.734610080718994 2.739471197128296 4.734560012817383 L 2.739501237869263 4.734560012817383 M 2.739541292190552 5.734560012817383 C 1.803101301193237 5.734630107879639 0.8840312361717224 5.237730026245117 0.3731712698936462 4.353300094604492 C -0.2622287571430206 3.252600193023682 -0.060628741979599 1.902600169181824 0.7835712432861328 1.064700126647949 C 1.23608136177063 0.9415401816368103 1.707901477813721 0.9448601603507996 2.152241230010986 1.061500191688538 C 2.511501312255859 0.54513019323349 3.041991233825684 0.1622401624917984 3.659071207046509 1.655578643067201e-07 C 4.271041393280029 0.1610201597213745 4.798291206359863 0.5394801497459412 5.157531261444092 1.049990177154541 C 5.588501453399658 0.9447400569915771 6.043321132659912 0.9457001686096191 6.480571269989014 1.064700126647949 C 7.324771404266357 1.902600169181824 7.526371479034424 3.252600193023682 6.890971183776855 4.353300094604492 C 6.254671096801758 5.45490026473999 4.984772682189941 5.95529842376709 3.837271213531494 5.64210033416748 C 3.764101266860962 5.569560050964355 3.69581127166748 5.493200302124023 3.632431268692017 5.413450241088867 C 3.568841218948364 5.493510246276855 3.500291347503662 5.570199966430664 3.426871299743652 5.64300012588501 C 3.200651168823242 5.704570293426514 2.969481229782104 5.734549999237061 2.739541292190552 5.734560012817383 Z" stroke="none" fill="#707070"/>
    </g>
    <g id="Rectangle_106" data-name="Rectangle 106" transform="translate(6273.089 6911.858)" fill="#fff" stroke="#707070" stroke-width="1">
      <rect width="3" height="5" stroke="none"/>
      <rect x="0.5" y="0.5" width="2" height="4" fill="none"/>
    </g>
    <g id="Union_14" data-name="Union 14" transform="translate(6260.107 6891.5)" fill="#fff">
      <path d="M 16.49560928344727 21.85702896118164 C 13.26977825164795 21.85702896118164 10.23698806762695 20.58828926086426 7.955908298492432 18.2845401763916 C 7.001908302307129 17.32106018066406 6.221448421478271 16.2201099395752 5.636188507080078 15.0122594833374 L 5.554468631744385 14.84360980987549 L 5.382028579711914 14.77021980285645 C 4.453028678894043 14.37484931945801 3.545228481292725 13.74495983123779 2.75674843788147 12.94863986968994 C 1.827368497848511 12.01001930236816 1.119268417358398 10.8865795135498 0.7628784775733948 9.785259246826172 C 0.4542777240276337 8.831636428833008 0.4177702665328979 7.929874897003174 0.6551409959793091 7.218741893768311 C 0.9576432704925537 7.115683555603027 1.294833302497864 7.063549518585205 1.660428524017334 7.063549518585205 C 2.271788358688354 7.063549518585205 2.955518484115601 7.213419437408447 3.637698411941528 7.496969699859619 L 4.239238262176514 7.746999740600586 L 4.325228691101074 7.101279735565186 C 4.486120223999023 5.893178462982178 4.929034233093262 4.924971103668213 5.580360412597656 4.346825122833252 C 6.305015087127686 4.495160579681396 7.056342601776123 4.976589679718018 7.71729850769043 5.720669746398926 C 8.483478546142578 6.583189487457275 9.092778205871582 7.76470947265625 9.432988166809082 9.04755973815918 C 9.60956859588623 9.714200019836426 9.710698127746582 10.386549949646 9.733548164367676 11.04582977294922 L 9.755528450012207 11.68021965026855 L 10.36712837219238 11.51024913787842 C 11.98587799072266 11.06038951873779 13.97395801544189 10.23743915557861 15.88122844696045 9.415119171142578 C 17.41567802429199 8.753089904785156 18.89907836914062 7.873279571533203 20.29034805297852 6.800079822540283 L 20.42666816711426 6.694919586181641 L 20.4693489074707 6.528129577636719 C 21.04455757141113 4.280229568481445 21.92262840270996 2.183529615402222 22.55721855163574 1.54263961315155 C 23.22260856628418 0.8702495694160461 24.10696792602539 0.5000095963478088 25.04748916625977 0.5000095963478088 C 25.98806762695312 0.5000095963478088 26.8726978302002 0.8702896237373352 27.53843879699707 1.54263961315155 C 27.9197883605957 1.927519559860229 28.2784481048584 3.088529586791992 28.49796867370605 4.648459434509277 L 28.53437805175781 4.907239437103271 L 28.76762771606445 5.025069713592529 L 30.89078521728516 6.0976881980896 L 28.99888801574707 7.05303955078125 L 28.7166690826416 7.195549488067627 L 28.72441864013672 7.511619567871094 C 28.77332878112793 9.506119728088379 28.60051918029785 11.3466100692749 28.26213836669922 12.4349193572998 L 28.25671768188477 12.45232963562012 L 28.25258827209473 12.47008991241455 C 27.74248886108398 14.66308975219727 26.62937927246094 16.67366027832031 25.03359794616699 18.28443908691406 C 22.75326919555664 20.58831977844238 19.72113800048828 21.85702896118164 16.49560928344727 21.85702896118164 Z" stroke="none"/>
      <path d="M 16.49560928344727 21.35702896118164 C 19.58661842346191 21.35702896118164 22.49253845214844 20.14097023010254 24.67838859558105 17.93255043029785 C 26.20895767211914 16.38759994506836 27.2764892578125 14.45954990386963 27.76558876037598 12.35681915283203 L 27.77384757995605 12.32129001617432 L 27.7846794128418 12.28646945953369 C 28.10777854919434 11.24731922149658 28.27221870422363 9.466909408569336 28.22456932067871 7.523879528045654 L 28.20906829833984 6.891739368438721 L 29.78174209594727 6.09758186340332 L 28.0756778717041 5.235679626464844 L 28.00284767150879 4.7181396484375 C 27.7443675994873 2.881329536437988 27.36612892150879 2.079119682312012 27.18314933776855 1.894439578056335 C 26.61203765869141 1.317659616470337 25.85357856750488 1.000009655952454 25.04748916625977 1.000009655952454 C 24.24150848388672 1.000009655952454 23.48336791992188 1.317589640617371 22.91250801086426 1.894439578056335 C 22.42787933349609 2.383889675140381 21.57667922973633 4.217659473419189 20.95374870300293 6.652079582214355 L 20.86838912963867 6.985669612884521 L 20.59573936462402 7.195979595184326 C 19.17149925231934 8.294619560241699 17.6519889831543 9.19568920135498 16.07918930053711 9.874269485473633 C 14.15566825866699 10.70357990264893 12.14858818054199 11.53411960601807 10.50100803375244 11.99199962615967 L 9.27781867980957 12.33192920684814 L 9.233848571777344 11.06313991546631 C 9.212298393249512 10.44120979309082 9.116668701171875 9.806099891662598 8.949688911437988 9.175729751586914 C 8.316877365112305 6.789461135864258 6.924947261810303 5.298880100250244 5.729902744293213 4.903958797454834 C 5.27175760269165 5.417514324188232 4.947481632232666 6.216475486755371 4.820858478546143 7.167279720306396 L 4.648868560791016 8.458739280700684 L 3.445788383483887 7.958679676055908 C 2.823888540267944 7.700179576873779 2.206518411636353 7.563549518585205 1.660428524017334 7.563549518585205 C 1.447853565216064 7.563549518585205 1.248104810714722 7.583777904510498 1.062930583953857 7.623904228210449 C 0.797633945941925 8.87155818939209 1.377236366271973 10.84478378295898 3.112048387527466 12.59683990478516 C 3.855308532714844 13.34748935699463 4.707958698272705 13.93994998931885 5.577828407287598 14.31015968322754 L 5.922708511352539 14.45692920684814 L 6.086148262023926 14.79423999786377 C 6.647368431091309 15.95247936248779 7.395988464355469 17.00841903686523 8.311198234558105 17.9327392578125 C 10.49765872955322 20.14093017578125 13.40426826477051 21.35702896118164 16.49560928344727 21.35702896118164 M 16.49560928344727 22.35702896118164 C 13.13484859466553 22.35702896118164 9.976958274841309 21.03631019592285 7.600608348846436 18.63633918762207 C 6.600808620452881 17.62660026550293 5.790278434753418 16.47691917419434 5.186228275299072 15.23028945922852 C 4.229888439178467 14.82327938079834 3.264498472213745 14.17206954956055 2.401448488235474 13.30043983459473 C 0.3474984765052795 11.22606945037842 -0.4711815416812897 8.567269325256348 0.2668984532356262 6.833139419555664 C 1.248588562011719 6.406929016113281 2.529138565063477 6.494729518890381 3.82960844039917 7.035269737243652 C 4.017068386077881 5.627669811248779 4.581268310546875 4.463359832763672 5.43798828125 3.81762957572937 C 7.293598651885986 4.03896951675415 9.164618492126465 6.08497953414917 9.916278839111328 8.919399261474609 C 10.10645866394043 9.637369155883789 10.20969867706299 10.34894943237305 10.23324871063232 11.02850914001465 C 11.68132877349854 10.62607955932617 13.43460845947266 9.925479888916016 15.68326854705811 8.955979347229004 C 17.19474792480469 8.303859710693359 18.65460777282715 7.430389404296875 19.98495864868164 6.404179573059082 C 20.56817817687988 4.12494945526123 21.4647388458252 1.935339570045471 22.20191764831543 1.190839648246765 C 23.77316856384277 -0.3969404697418213 26.32157897949219 -0.3969404697418213 27.89373779296875 1.190839648246765 C 28.39757919311523 1.699339628219604 28.77053833007812 2.997309684753418 28.99308776855469 4.578789710998535 L 31.99981880187988 6.097789764404297 L 29.22426795959473 7.499359607696533 C 29.27175903320312 9.435829162597656 29.11916923522949 11.36254978179932 28.73958778381348 12.58336925506592 C 28.21070861816406 14.8571195602417 27.06599807739258 16.94338035583496 25.38879776000977 18.63633918762207 C 23.01335906982422 21.03631019592285 19.85454940795898 22.35702896118164 16.49560928344727 22.35702896118164 Z" stroke="none" fill="#707070"/>
    </g>
    <g id="Intersection_8" data-name="Intersection 8" transform="translate(6268.47 6904.789) rotate(-30)" fill="#fff">
      <path d="M 6.499863624572754 7.500100612640381 C 5.07477331161499 7.500100612640381 3.733693361282349 7.133040428161621 2.621603488922119 6.438600540161133 C 1.619573712348938 5.812891960144043 0.8820952177047729 4.951705455780029 0.5291814208030701 4.000040531158447 C 0.8820951581001282 3.048376798629761 1.61957311630249 2.187199354171753 2.621593475341797 1.561490535736084 C 3.733683347702026 0.8670605421066284 5.07477331161499 0.500000536441803 6.499863624572754 0.500000536441803 C 7.92560338973999 0.500000536441803 9.267043113708496 0.8671705722808838 10.37915325164795 1.561820507049561 C 11.38127422332764 2.187771081924438 12.11857604980469 3.049264907836914 12.47110748291016 4.001381874084473 C 11.70769882202148 6.069321632385254 9.281152725219727 7.500100612640381 6.499863624572754 7.500100612640381 Z" stroke="none"/>
      <path d="M 6.499863624572754 1.000000476837158 C 5.187533378601074 1.000000476837158 3.904253005981445 1.350020408630371 2.886423110961914 1.985600471496582 C 2.040498733520508 2.513832092285156 1.405058860778809 3.220372200012207 1.067773818969727 4.000040531158447 C 1.405058860778809 4.77971076965332 2.040500640869141 5.486260414123535 2.886433601379395 6.014500617980957 C 3.904253005981445 6.650070667266846 5.187533378601074 7.000100612640381 6.499863624572754 7.000100612640381 C 7.812383651733398 7.000100612640381 9.095773696899414 6.650200366973877 10.11361312866211 6.014870643615723 C 10.95951080322266 5.486851215362549 11.59503173828125 4.780474662780762 11.93245601654053 4.000990867614746 C 11.59546661376953 3.2210373878479 10.96019458770752 2.514273643493652 10.11427307128906 1.98589038848877 C 9.096433639526367 1.350130558013916 7.812813282012939 1.000000476837158 6.499863624572754 1.000000476837158 M 6.499863624572754 9.5367431640625e-07 C 9.628183364868164 9.5367431640625e-07 12.25590324401855 1.700220584869385 13.00018310546875 4.001340866088867 C 12.25461387634277 6.301200389862061 9.627043724060059 8.000100135803223 6.499863624572754 8.000100135803223 C 3.372983932495117 8.000100135803223 0.7451133728027344 6.300410270690918 3.814697265625e-06 4.000040531158447 C 0.7451133728027344 1.699680328369141 3.372983932495117 9.5367431640625e-07 6.499863624572754 9.5367431640625e-07 Z" stroke="none" fill="#707070"/>
    </g>
    <g id="Rectangle_105" data-name="Rectangle 105" transform="translate(6272.095 6914.858)" fill="#fff" stroke="#707070" stroke-width="1">
      <rect width="7" height="3" rx="1.5" stroke="none"/>
      <rect x="0.5" y="0.5" width="6" height="2" rx="1" fill="none"/>
    </g>
    <g id="Ellipse_39" data-name="Ellipse 39" transform="translate(6284.663 6894.576)" fill="#fff" stroke="#707070" stroke-width="1">
      <circle cx="1" cy="1" r="1" stroke="none"/>
      <circle cx="1" cy="1" r="0.5" fill="none"/>
    </g>
  </g>
</svg>
