<svg xmlns="http://www.w3.org/2000/svg" width="39" height="29" viewBox="0 0 39 29">
  <g id="cow" transform="translate(-6214 -6886.036)">
    <g id="Union_11" data-name="Union 11" transform="translate(6227 6905.036)" fill="#fff">
      <path d="M 9.999899864196777 9.499899864196777 C 9.172909736633301 9.499899864196777 8.500100135803223 8.827090263366699 8.500100135803223 8.000100135803223 L 8.500100135803223 1.999799966812134 C 8.500100135803223 1.172809958457947 9.172909736633301 0.4999999403953552 9.999899864196777 0.4999999403953552 C 10.82738971710205 0.4999999403953552 11.50059986114502 1.172809958457947 11.50059986114502 1.999799966812134 L 11.50059986114502 8.000100135803223 C 11.50059986114502 8.827090263366699 10.82738971710205 9.499899864196777 9.999899864196777 9.499899864196777 Z M 2.000699996948242 9.499899864196777 C 1.17320990562439 9.499899864196777 0.4999999403953552 8.827090263366699 0.4999999403953552 8.000100135803223 L 0.4999999403953552 1.999799966812134 C 0.4999999403953552 1.172809958457947 1.17320990562439 0.4999999403953552 2.000699996948242 0.4999999403953552 C 2.82768988609314 0.4999999403953552 3.500499963760376 1.172809958457947 3.500499963760376 1.999799966812134 L 3.500499963760376 8.000100135803223 C 3.500499963760376 8.827090263366699 2.82768988609314 9.499899864196777 2.000699996948242 9.499899864196777 Z" stroke="none"/>
      <path d="M 9.999899864196777 8.999899864196777 C 10.55169010162354 8.999899864196777 11.00059986114502 8.551389694213867 11.00059986114502 8.000100135803223 L 11.00059986114502 1.999799966812134 C 11.00059986114502 1.448509931564331 10.55169010162354 0.9999999403953552 9.999899864196777 0.9999999403953552 C 9.448610305786133 0.9999999403953552 9.000100135803223 1.448509931564331 9.000100135803223 1.999799966812134 L 9.000100135803223 8.000100135803223 C 9.000100135803223 8.551389694213867 9.448610305786133 8.999899864196777 9.999899864196777 8.999899864196777 M 2.000699996948242 8.999899864196777 C 2.551990032196045 8.999899864196777 3.000499963760376 8.551389694213867 3.000499963760376 8.000100135803223 L 3.000499963760376 1.999799966812134 C 3.000499963760376 1.448509931564331 2.551990032196045 0.9999999403953552 2.000699996948242 0.9999999403953552 C 1.448909878730774 0.9999999403953552 0.9999999403953552 1.448509931564331 0.9999999403953552 1.999799966812134 L 0.9999999403953552 8.000100135803223 C 0.9999999403953552 8.551389694213867 1.448909878730774 8.999899864196777 2.000699996948242 8.999899864196777 M 9.999899864196777 9.999899864196777 C 8.895600318908691 9.999899864196777 8.000100135803223 9.104399681091309 8.000100135803223 8.000100135803223 L 8.000100135803223 1.999799966812134 C 8.000100135803223 0.8954999446868896 8.895600318908691 -6.790160966829717e-08 9.999899864196777 -6.790160966829717e-08 C 11.10509967803955 -6.790160966829717e-08 12.00059986114502 0.8954999446868896 12.00059986114502 1.999799966812134 L 12.00059986114502 8.000100135803223 C 12.00059986114502 9.104399681091309 11.10509967803955 9.999899864196777 9.999899864196777 9.999899864196777 Z M 2.000699996948242 9.999899864196777 C 0.8954999446868896 9.999899864196777 -6.942749308791463e-08 9.104399681091309 -6.942749308791463e-08 8.000100135803223 L -6.942749308791463e-08 1.999799966812134 C -6.942749308791463e-08 0.8954999446868896 0.8954999446868896 -6.790160966829717e-08 2.000699996948242 -6.790160966829717e-08 C 3.105000019073486 -6.790160966829717e-08 4.000499725341797 0.8954999446868896 4.000499725341797 1.999799966812134 L 4.000499725341797 8.000100135803223 C 4.000499725341797 9.104399681091309 3.105000019073486 9.999899864196777 2.000699996948242 9.999899864196777 Z" stroke="none" fill="#707070"/>
    </g>
    <g id="Rectangle_99" data-name="Rectangle 99" transform="translate(6222 6905.036)" fill="#fff" stroke="#707070" stroke-width="1">
      <rect width="4" height="10" rx="2" stroke="none"/>
      <rect x="0.5" y="0.5" width="3" height="9" rx="1.5" fill="none"/>
    </g>
    <g id="Polygon_7" data-name="Polygon 7" transform="translate(6237.402 6889.036) rotate(-30)" fill="#fff">
      <path d="M 5.241733074188232 6.5 L 0.7582671642303467 6.5 L 3 1.269289970397949 L 5.241733074188232 6.5 Z" stroke="none"/>
      <path d="M 3 2.53860330581665 L 1.516544342041016 6 L 4.483455657958984 6 L 3 2.53860330581665 M 3 0 L 6 7 L 0 7 L 3 0 Z" stroke="none" fill="#707070"/>
    </g>
    <g id="Rectangle_100" data-name="Rectangle 100" transform="translate(6240 6905.036)" fill="#fff" stroke="#707070" stroke-width="1">
      <rect width="4" height="10" rx="2" stroke="none"/>
      <rect x="0.5" y="0.5" width="3" height="9" rx="1.5" fill="none"/>
    </g>
    <path id="Union_10" data-name="Union 10" d="M6.5,14a1,1,0,0,1-1-1V3.545A6.009,6.009,0,0,0,2,9v.5H0V9A8.015,8.015,0,0,1,5.5,1.4V1a1,1,0,0,1,1-1h23a1,1,0,0,1,1,1V13a1,1,0,0,1-1,1Z" transform="translate(6215 6895.523)" fill="#fff" stroke="#707070" stroke-width="1"/>
    <g id="Ellipse_28" data-name="Ellipse 28" transform="translate(6214 6904.028)" fill="#fff" stroke="#707070" stroke-width="1">
      <ellipse cx="2" cy="3" rx="2" ry="3" stroke="none"/>
      <ellipse cx="2" cy="3" rx="1.5" ry="2.5" fill="none"/>
    </g>
    <g id="Subtraction_11" data-name="Subtraction 11" transform="translate(6240 6891.008)" fill="#fff">
      <path d="M 11.99970054626465 7.500100135803223 L 0.999900221824646 7.500100135803223 C 0.7242501974105835 7.500100135803223 0.5000001788139343 7.275850296020508 0.5000001788139343 7.000200271606445 L 0.5000001788139343 0.9999000430107117 C 0.5000001788139343 0.7242500782012939 0.7242501974105835 0.5000000596046448 0.999900221824646 0.5000000596046448 L 6.590355396270752 0.5000000596046448 C 6.778660297393799 1.010677576065063 7.306971073150635 1.597279787063599 8.581089973449707 2.082810163497925 C 9.650784492492676 2.490437030792236 11.02700614929199 2.733438491821289 12.49960041046143 2.778396129608154 L 12.49960041046143 7.000200271606445 C 12.49960041046143 7.275850296020508 12.27535057067871 7.500100135803223 11.99970054626465 7.500100135803223 Z" stroke="none"/>
      <path d="M 11.99970054626465 7.000100135803223 L 11.99960041046143 7.000200271606445 L 11.99960041046143 3.256142616271973 C 10.65491390228271 3.175147771835327 9.403940200805664 2.93144416809082 8.403050422668457 2.550040006637573 C 7.210383415222168 2.095550060272217 6.583679676055908 1.535986542701721 6.273269176483154 0.9999879598617554 L 1.000000238418579 0.9999000430107117 L 0.999900221824646 7.000100135803223 L 11.99970054626465 7.000100135803223 M 11.99970054626465 8.000100135803223 L 0.999900221824646 8.000100135803223 C 0.4485501945018768 8.000100135803223 2.052307195299363e-07 7.551549911499023 2.052307195299363e-07 7.000200271606445 L 2.052307195299363e-07 0.9999000430107117 C 2.052307195299363e-07 0.4485500752925873 0.4485501945018768 6.790160966829717e-08 0.999900221824646 6.790160966829717e-08 L 7.000200271606445 6.790160966829717e-08 C 7.000720024108887 0.6100100874900818 7.625030040740967 1.183410048484802 8.759140014648438 1.61559009552002 C 9.893640518188477 2.04790997505188 11.3996000289917 2.28600001335144 12.99960041046143 2.28600001335144 L 12.99960041046143 7.000200271606445 C 12.99960041046143 7.551549911499023 12.55105018615723 8.000100135803223 11.99970054626465 8.000100135803223 Z" stroke="none" fill="#707070"/>
    </g>
    <g id="Ellipse_30" data-name="Ellipse 30" transform="translate(6245 6893.009)" fill="#fff" stroke="#707070" stroke-width="1">
      <circle cx="1" cy="1" r="1" stroke="none"/>
      <circle cx="1" cy="1" r="0.5" fill="none"/>
    </g>
    <g id="Rectangle_102" data-name="Rectangle 102" transform="translate(6224 6895.014)" fill="#707070" stroke="#707070" stroke-width="1">
      <path d="M0,0H10a0,0,0,0,1,0,0V4A2,2,0,0,1,8,6H2A2,2,0,0,1,0,4V0A0,0,0,0,1,0,0Z" stroke="none"/>
      <path d="M.5.5h9a0,0,0,0,1,0,0V4A1.5,1.5,0,0,1,8,5.5H2A1.5,1.5,0,0,1,.5,4V.5A0,0,0,0,1,.5.5Z" fill="none"/>
    </g>
    <g id="Rectangle_103" data-name="Rectangle 103" transform="translate(6220 6904.028)" fill="#707070" stroke="#707070" stroke-width="1">
      <path d="M0,0H9a2,2,0,0,1,2,2V6a0,0,0,0,1,0,0H2A2,2,0,0,1,0,4V0A0,0,0,0,1,0,0Z" stroke="none"/>
      <path d="M.5.5H9A1.5,1.5,0,0,1,10.5,2V5.5a0,0,0,0,1,0,0H2A1.5,1.5,0,0,1,.5,4V.5A0,0,0,0,1,.5.5Z" fill="none"/>
    </g>
    <g id="Rectangle_104" data-name="Rectangle 104" transform="translate(6235 6901.023)" fill="#707070" stroke="#707070" stroke-width="1">
      <path d="M2,0h9a0,0,0,0,1,0,0V6a0,0,0,0,1,0,0H2A2,2,0,0,1,0,4V2A2,2,0,0,1,2,0Z" stroke="none"/>
      <path d="M2,.5h8.5a0,0,0,0,1,0,0v5a0,0,0,0,1,0,0H2A1.5,1.5,0,0,1,.5,4V2A1.5,1.5,0,0,1,2,.5Z" fill="none"/>
    </g>
  </g>
</svg>
