<svg xmlns="http://www.w3.org/2000/svg" width="35" height="15" viewBox="0 0 35 15">
  <g id="fish" transform="translate(-6146.718 -6906.5)">
    <g id="Union_5" data-name="Union 5" transform="translate(6146.718 6907.318)" fill="#fff">
      <path d="M 2.643331050872803 12.86335277557373 C 1.785052895545959 12.86337947845459 1.051098465919495 12.67236709594727 0.5053067207336426 12.30895233154297 C 0.4596575498580933 11.5756368637085 0.7236443758010864 10.73210430145264 1.260471105575562 9.90875244140625 C 1.882321119308472 8.954982757568359 2.847241163253784 8.070542335510254 3.977491140365601 7.418352603912354 C 4.153641223907471 7.316642284393311 4.334861278533936 7.21987247467041 4.516211032867432 7.130672454833984 L 5.428311347961426 6.682002544403076 L 4.516201019287109 6.233352661132812 C 4.335000991821289 6.144222736358643 4.153800964355469 6.047442436218262 3.9776611328125 5.945712566375732 C 2.847281217575073 5.293032646179199 1.882321119308472 4.408302307128906 1.260481119155884 3.454452514648438 C 0.7236543893814087 2.630990505218506 0.4596591889858246 1.787416458129883 0.5053069591522217 1.054110407829285 C 1.050834894180298 0.6909291744232178 1.784574747085571 0.5000025033950806 2.642641067504883 0.5000025033950806 C 3.868281126022339 0.5000025033950806 5.230161190032959 0.8963624835014343 6.477391242980957 1.616052508354187 C 8.699590682983398 2.89960241317749 10.12320137023926 4.960262298583984 9.939170837402344 6.627102375030518 L 9.933111190795898 6.681972503662109 L 9.939170837402344 6.736852645874023 C 10.12331104278564 8.404372215270996 8.699770927429199 10.46462249755859 6.477391242980957 11.7470121383667 C 5.230621337890625 12.46689224243164 3.869031190872192 12.86332225799561 2.643331050872803 12.86335277557373 Z" stroke="none"/>
      <path d="M 2.64332103729248 12.36335277557373 C 3.782621145248413 12.36332225799561 5.055421352386475 11.99068260192871 6.227500915527344 11.31394290924072 C 8.519741058349609 9.991232872009277 9.579791069030762 8.037772178649902 9.442191123962402 6.791732311248779 L 9.430070877075195 6.681982517242432 L 9.442191123962402 6.572232723236084 C 9.579710960388184 5.326682567596436 8.51952075958252 3.373002529144287 6.227500915527344 2.049132585525513 C 5.055051326751709 1.372592449188232 3.781921148300171 1.000002503395081 2.642641067504883 1.000002503395081 C 2.00817608833313 1.000002503395081 1.442006707191467 1.119684219360352 1.004016399383545 1.342041373252869 C 1.071745038032532 2.587667942047119 2.12764835357666 4.300159931182861 4.227731227874756 5.51273250579834 C 4.394300937652588 5.60894250869751 4.565601348876953 5.700442314147949 4.736891269683838 5.784692287445068 L 6.561110973358154 6.681992530822754 L 4.73690128326416 7.579322338104248 C 4.565451145172119 7.663662433624268 4.394101142883301 7.755172729492188 4.227381229400635 7.851422309875488 C 2.127504110336304 9.063126564025879 1.071699142456055 10.77535152435303 1.004003882408142 12.02104759216309 C 1.442225694656372 12.2435998916626 2.008630037307739 12.36336803436279 2.643311023712158 12.36335277557373 L 2.64332103729248 12.36335277557373 M 2.643341064453125 13.36335277557373 C 1.60525119304657 13.36338233947754 0.6883911490440369 13.10075283050537 0.03129114210605621 12.58238220214844 C -0.2360088527202606 10.7445821762085 1.227391123771667 8.427982330322266 3.727591037750244 6.985282421112061 C 3.915751218795776 6.87664270401001 4.105310916900635 6.775572299957275 4.295511245727539 6.682012557983398 C 4.105201244354248 6.588402271270752 3.915831089019775 6.487402439117432 3.727591037750244 6.378682613372803 C 1.227391123771667 4.93508243560791 -0.2360088527202606 2.61848258972168 0.03129114210605621 0.7806825041770935 C 1.489290833473206 -0.3695171773433685 4.227091312408447 -0.259717732667923 6.727291107177734 1.182982563972473 C 9.181891441345215 2.600762605667114 10.63724136352539 4.860642433166504 10.4361515045166 6.681972503662109 C 10.6372709274292 8.503302574157715 9.182781219482422 10.76318264007568 6.727291107177734 12.18008232116699 C 5.353891372680664 12.97307205200195 3.908611059188843 13.36332225799561 2.643341064453125 13.36335277557373 Z" stroke="none" fill="#707070"/>
    </g>
    <g id="Intersection_1" data-name="Intersection 1" transform="translate(6152.945 6906.5)" fill="#fff">
      <path d="M 14.38683795928955 14.49939918518066 C 11.1058874130249 14.49939918518066 8.015567779541016 13.78208923339844 5.44993782043457 12.42500972747803 C 3.072744846343994 11.16759490966797 1.336309909820557 9.424251556396484 0.5381840467453003 7.499699592590332 C 1.336309909820557 5.57514762878418 3.072744846343994 3.831804513931274 5.44993782043457 2.574389696121216 C 8.015567779541016 1.217309594154358 11.1058874130249 0.4999995827674866 14.38683795928955 0.4999995827674866 C 17.66743850708008 0.4999995827674866 20.75750732421875 1.217309594154358 23.322998046875 2.574389696121216 C 25.70010375976562 3.831814050674438 27.43647956848145 5.575156688690186 28.23459243774414 7.499699592590332 C 27.43647956848145 9.424242973327637 25.70010375976562 11.1675853729248 23.322998046875 12.42500972747803 C 20.75750732421875 13.78208923339844 17.66743850708008 14.49939918518066 14.38683795928955 14.49939918518066 Z" stroke="none"/>
      <path d="M 14.38683795928955 1 C 11.18706703186035 1 8.177587509155273 1.697249412536621 5.683727264404297 3.016369819641113 C 3.489412307739258 4.177048683166504 1.870843887329102 5.758083343505859 1.083051681518555 7.499699592590332 C 1.870843887329102 9.241315841674805 3.489412307739258 10.82235050201416 5.683727264404297 11.98302936553955 C 8.177587509155273 13.30214977264404 11.18706703186035 13.99939918518066 14.38683795928955 13.99939918518066 C 17.58624649047852 13.99939918518066 20.59547805786133 13.30214977264404 23.08919715881348 11.98303985595703 C 25.28343963623047 10.82235145568848 26.90194892883301 9.24130916595459 27.68972587585449 7.499699592590332 C 26.90194892883301 5.758090019226074 25.28343963623047 4.177047729492188 23.08919715881348 3.016359329223633 C 20.59547805786133 1.697249412536621 17.58624649047852 1 14.38683795928955 1 M 14.38683795928955 0 C 21.30784797668457 0 27.12370681762695 3.186529159545898 28.77277755737305 7.499699592590332 C 27.12370681762695 11.81287002563477 21.30784797668457 14.99939918518066 14.38683795928955 14.99939918518066 C 7.465066909790039 14.99939918518066 1.649078369140625 11.81287002563477 -1.9073486328125e-06 7.499699592590332 C 1.649078369140625 3.186529159545898 7.465066909790039 0 14.38683795928955 0 Z" stroke="none" fill="#707070"/>
    </g>
    <g id="Intersection_3" data-name="Intersection 3" transform="translate(6171.718 6907.6)" fill="#fff">
      <path d="M 2.483958005905151 12.21171760559082 C 1.20211923122406 10.55463695526123 0.5000004172325134 8.504685401916504 0.5000004172325134 6.400470733642578 C 0.5000004172325134 4.2965407371521 1.202154636383057 2.246685266494751 2.484056949615479 0.5894859433174133 C 5.908421516418457 1.83628511428833 8.429268836975098 3.934711933135986 9.461009979248047 6.4004807472229 C 8.429375648498535 8.866496086120605 5.90845775604248 10.96502208709717 2.483958005905151 12.21171760559082 Z" stroke="none"/>
      <path d="M 2.661026000976562 1.190212249755859 C 1.585711479187012 2.705109596252441 1 4.530325889587402 1 6.400470733642578 C 1 8.2708740234375 1.585681915283203 10.09618377685547 2.660939693450928 11.61099338531494 C 5.686935424804688 10.43540096282959 7.925655841827393 8.572038650512695 8.915436744689941 6.400510787963867 C 7.925576686859131 4.229181289672852 5.686919689178467 2.365906715393066 2.661026000976562 1.190212249755859 M 2.316330432891846 9.5367431640625e-07 C 6.081360340118408 1.289220809936523 8.921600341796875 3.608890533447266 9.999900817871094 6.400470733642578 C 8.921600341796875 9.192630767822266 6.081260681152344 11.51215076446533 2.316230297088623 12.80118083953857 C 0.870020866394043 11.0669412612915 0 8.835460662841797 0 6.400470733642578 C 0 3.96588134765625 0.8701200485229492 1.734311103820801 2.316330432891846 9.5367431640625e-07 Z" stroke="none" fill="#707070"/>
    </g>
    <g id="Subtraction_3" data-name="Subtraction 3" transform="translate(6159.195 6914) rotate(-45)" fill="#fff">
      <path d="M 4.872920036315918 7.500100135803223 L 0.5164809823036194 7.500100135803223 C 0.7638090848922729 3.762272596359253 3.761911153793335 0.7638387084007263 7.499287128448486 0.5164812207221985 L 7.500022411346436 4.874011993408203 C 6.153912544250488 5.089149475097656 5.087600708007812 6.154971599578857 4.872920036315918 7.500100135803223 Z" stroke="none"/>
      <path d="M 4.47224760055542 7.000100135803223 C 4.818613052368164 5.782057762145996 5.781130313873291 4.819833278656006 6.999954700469971 4.473377227783203 L 6.999380588531494 1.071205615997314 C 3.938621044158936 1.510986804962158 1.510929107666016 3.938944816589355 1.07120406627655 7.000100135803223 L 4.47224760055542 7.000100135803223 M 5.333400249481201 8.000100135803223 L 6.790160966829717e-08 8.000100135803223 C 6.790160966829717e-08 3.588380098342896 3.588870048522949 6.790160966829717e-08 7.999199867248535 6.790160966829717e-08 L 8.000100135803223 5.33430004119873 C 6.529819965362549 5.335299968719482 5.333990097045898 6.530280113220215 5.333400249481201 7.999100208282471 L 5.333400249481201 8.000100135803223 Z" stroke="none" fill="#707070"/>
    </g>
    <g id="Ellipse_14" data-name="Ellipse 14" transform="translate(6175.718 6912)" fill="#fff" stroke="#707070" stroke-width="1">
      <circle cx="1" cy="1" r="1" stroke="none"/>
      <circle cx="1" cy="1" r="0.5" fill="none"/>
    </g>
  </g>
</svg>
