<svg xmlns="http://www.w3.org/2000/svg" width="33.999" height="23" viewBox="0 0 33.999 23">
  <g id="pig" transform="translate(-6084.171 -6912)">
    <g id="Ellipse_5" data-name="Ellipse 5" transform="translate(6085 6915)" fill="#fff" stroke="#707070" stroke-width="1">
      <circle cx="1.5" cy="1.5" r="1.5" stroke="none"/>
      <circle cx="1.5" cy="1.5" r="1" fill="none"/>
    </g>
    <g id="Rectangle_83" data-name="Rectangle 83" transform="translate(6084.171 6913.793) rotate(-45)" fill="#fff" stroke="#707070" stroke-width="1">
      <rect width="1" height="3" rx="0.5" stroke="none"/>
      <rect x="0.5" y="0.5" height="2" fill="none"/>
    </g>
    <g id="Ellipse_6" data-name="Ellipse 6" transform="translate(6086 6916)" fill="#fff" stroke="#707070" stroke-width="1">
      <circle cx="1.5" cy="1.5" r="1.5" stroke="none"/>
      <circle cx="1.5" cy="1.5" r="1" fill="none"/>
    </g>
    <g id="Union_4" data-name="Union 4" transform="translate(6093.589 6925)" fill="#fff">
      <path d="M 12.99960041046143 9.499899864196777 C 12.17261028289795 9.499899864196777 11.49979972839355 8.827090263366699 11.49979972839355 8.000100135803223 L 11.49979972839355 1.999799966812134 C 11.49979972839355 1.172809958457947 12.17261028289795 0.4999999403953552 12.99960041046143 0.4999999403953552 C 13.8270902633667 0.4999999403953552 14.50030040740967 1.172809958457947 14.50030040740967 1.999799966812134 L 14.50030040740967 8.000100135803223 C 14.50030040740967 8.827090263366699 13.8270902633667 9.499899864196777 12.99960041046143 9.499899864196777 Z M 1.999800205230713 9.499899864196777 C 1.172810196876526 9.499899864196777 0.5000001788139343 8.827090263366699 0.5000001788139343 8.000100135803223 L 0.5000001788139343 1.999799966812134 C 0.5000001788139343 1.172809958457947 1.172810196876526 0.4999999403953552 1.999800205230713 0.4999999403953552 C 2.82679009437561 0.4999999403953552 3.499600172042847 1.172809958457947 3.499600172042847 1.999799966812134 L 3.499600172042847 8.000100135803223 C 3.499600172042847 8.827090263366699 2.82679009437561 9.499899864196777 1.999800205230713 9.499899864196777 Z" stroke="none"/>
      <path d="M 12.99960041046143 8.999899864196777 C 13.55139064788818 8.999899864196777 14.00030040740967 8.551389694213867 14.00030040740967 8.000100135803223 L 14.00030040740967 1.999799966812134 C 14.00030040740967 1.448509931564331 13.55139064788818 0.9999999403953552 12.99960041046143 0.9999999403953552 C 12.44830989837646 0.9999999403953552 11.99979972839355 1.448509931564331 11.99979972839355 1.999799966812134 L 11.99979972839355 8.000100135803223 C 11.99979972839355 8.551389694213867 12.44830989837646 8.999899864196777 12.99960041046143 8.999899864196777 M 1.999800205230713 8.999899864196777 C 2.551090240478516 8.999899864196777 2.999600172042847 8.551389694213867 2.999600172042847 8.000100135803223 L 2.999600172042847 1.999799966812134 C 2.999600172042847 1.448509931564331 2.551090240478516 0.9999999403953552 1.999800205230713 0.9999999403953552 C 1.44851016998291 0.9999999403953552 1.000000238418579 1.448509931564331 1.000000238418579 1.999799966812134 L 1.000000238418579 8.000100135803223 C 1.000000238418579 8.551389694213867 1.44851016998291 8.999899864196777 1.999800205230713 8.999899864196777 M 12.99960041046143 9.999899864196777 C 11.89529991149902 9.999899864196777 10.99979972839355 9.104399681091309 10.99979972839355 8.000100135803223 L 10.99979972839355 1.999799966812134 C 10.99979972839355 0.8954999446868896 11.89529991149902 -6.790160966829717e-08 12.99960041046143 -6.790160966829717e-08 C 14.1048002243042 -6.790160966829717e-08 15.00030040740967 0.8954999446868896 15.00030040740967 1.999799966812134 L 15.00030040740967 8.000100135803223 C 15.00030040740967 9.104399681091309 14.1048002243042 9.999899864196777 12.99960041046143 9.999899864196777 Z M 1.999800205230713 9.999899864196777 C 0.8955001831054688 9.999899864196777 2.037048290048915e-07 9.104399681091309 2.037048290048915e-07 8.000100135803223 L 2.037048290048915e-07 1.999799966812134 C 2.037048290048915e-07 0.8954999446868896 0.8955001831054688 -6.790160966829717e-08 1.999800205230713 -6.790160966829717e-08 C 3.105000257492065 -6.790160966829717e-08 3.999600172042847 0.8954999446868896 3.999600172042847 1.999799966812134 L 3.999600172042847 8.000100135803223 C 3.999600172042847 9.104399681091309 3.105000257492065 9.999899864196777 1.999800205230713 9.999899864196777 Z" stroke="none" fill="#707070"/>
    </g>
    <g id="Union_7" data-name="Union 7" transform="translate(6087 6912)" fill="#fff">
      <path d="M 24.35219955444336 22.50040054321289 C 23.55348968505859 22.50040054321289 22.90369987487793 21.85061073303223 22.90369987487793 21.05190086364746 L 22.90369987487793 18.46080017089844 L 22.90369987487793 17.69998931884766 L 22.20532989501953 18.0018310546875 C 19.93798065185547 18.98180961608887 17.31208038330078 19.49979972839355 14.61150074005127 19.49979972839355 C 11.49957084655762 19.49979972839355 8.547060012817383 18.82771110534668 6.073160648345947 17.55620002746582 L 5.344600677490234 17.18173980712891 L 5.344600677490234 18.00090026855469 L 5.344600677490234 21.05190086364746 C 5.344600677490234 21.85061073303223 4.694810390472412 22.50040054321289 3.896100521087646 22.50040054321289 C 3.097890377044678 22.50040054321289 2.448500394821167 21.85061073303223 2.448500394821167 21.05190086364746 L 2.448500394821167 14.99219989776611 L 2.448500394821167 14.80943012237549 L 2.330620527267456 14.66973972320557 C 1.133020401000977 13.25053977966309 0.5000004172325134 11.63574028015137 0.5000004172325134 9.999899864196777 C 0.5000004172325134 7.499790191650391 1.942560434341431 5.135330200195312 4.56195068359375 3.342080116271973 C 7.239880561828613 1.509350180625916 10.80890083312988 0.5000001788139343 14.61150074005127 0.5000001788139343 C 17.16590118408203 0.5000001788139343 19.67037963867188 0.9675601720809937 21.85419082641602 1.852130174636841 C 22.20819091796875 1.995400190353394 22.55768013000488 2.151420116424561 22.89307975769043 2.315920114517212 L 23.13702964782715 2.43556022644043 L 23.37013053894043 2.29597020149231 L 26.09407997131348 0.6647701859474182 C 26.16793060302734 0.6206002235412598 26.24625968933105 0.5981401801109314 26.32666969299316 0.5981401801109314 C 26.44781112670898 0.5981401801109314 26.56877136230469 0.6498702168464661 26.65855026245117 0.7400602102279663 C 26.72463989257812 0.8064501881599426 26.8032398223877 0.9231402277946472 26.80241012573242 1.101970195770264 L 26.78549957275391 5.019500255584717 L 26.78470993041992 5.202730178833008 L 26.80837821960449 5.230930805206299 C 27.04301071166992 7.722286701202393 28.47074508666992 9.956427574157715 30.67060089111328 11.28415584564209 L 30.67060089111328 12.99960041046143 C 30.67060089111328 13.8270902633667 29.9977912902832 14.50030040740967 29.17080116271973 14.50030040740967 L 27.2681999206543 14.50030040740967 L 27.03586959838867 14.50030040740967 L 26.88605117797852 14.67786026000977 C 26.60993003845215 15.00512981414795 26.29976081848145 15.3259105682373 25.96417045593262 15.63129997253418 L 25.80070114135742 15.78007030487061 L 25.80070114135742 16.00110054016113 L 25.80070114135742 21.05190086364746 C 25.80070114135742 21.85061073303223 25.15091133117676 22.50040054321289 24.35219955444336 22.50040054321289 Z" stroke="none"/>
      <path d="M 24.35219955444336 22.00040054321289 C 24.87520027160645 22.00040054321289 25.30070114135742 21.57489967346191 25.30070114135742 21.05190086364746 L 25.30070114135742 15.55904006958008 L 25.62765121459961 15.26150035858154 C 25.94707107543945 14.97082996368408 26.24188041687012 14.66598033905029 26.50391006469727 14.35543060302734 L 26.80355072021484 14.00030040740967 L 29.17080116271973 14.00030040740967 C 29.72208976745605 14.00030040740967 30.17060089111328 13.55139064788818 30.17060089111328 12.99960041046143 L 30.17060089111328 11.56107807159424 C 28.01706123352051 10.16553592681885 26.6099739074707 7.929360866546631 26.32689666748047 5.434998512268066 L 26.2839298248291 5.383800029754639 L 26.30231094360352 1.12286365032196 L 23.16080093383789 3.004110097885132 L 22.67292022705078 2.764830112457275 C 22.3481502532959 2.605560302734375 22.00963020324707 2.454430103302002 21.66646957397461 2.315550088882446 C 19.54174041748047 1.454910159111023 17.10217094421387 1.000000238418579 14.61150074005127 1.000000238418579 C 10.90867042541504 1.000000238418579 7.439940452575684 1.978320240974426 4.844410419464111 3.754660129547119 C 2.365300416946411 5.451860427856445 1.000000476837158 7.669800281524658 1.000000476837158 9.999899864196777 C 1.000000476837158 11.51617050170898 1.592260479927063 13.01947021484375 2.712750434875488 14.34728050231934 L 2.948500394821167 14.62664985656738 L 2.948500394821167 21.05190086364746 C 2.948500394821167 21.57489967346191 3.373590469360352 22.00040054321289 3.896100521087646 22.00040054321289 C 4.419100284576416 22.00040054321289 4.844600677490234 21.57489967346191 4.844600677490234 21.05190086364746 L 4.844600677490234 16.36257934570312 L 6.301730632781982 17.11149978637695 C 8.705240249633789 18.34683990478516 11.57871055603027 18.99979972839355 14.61150074005127 18.99979972839355 C 17.24440956115723 18.99979972839355 19.80171966552734 18.49600028991699 22.00695991516113 17.54286956787109 L 23.40369987487793 16.93918037414551 L 23.40369987487793 21.05190086364746 C 23.40369987487793 21.57489967346191 23.82920074462891 22.00040054321289 24.35219955444336 22.00040054321289 M 24.35219955444336 23.00040054321289 C 23.27760124206543 23.00040054321289 22.40369987487793 22.12650108337402 22.40369987487793 21.05190086364746 L 22.40369987487793 18.46080017089844 C 20.07360076904297 19.46789932250977 17.37810134887695 19.99979972839355 14.61150074005127 19.99979972839355 C 11.42010021209717 19.99979972839355 8.388900756835938 19.3085994720459 5.844600677490234 18.00090026855469 L 5.844600677490234 21.05190086364746 C 5.844600677490234 22.12650108337402 4.970700263977051 23.00040054321289 3.896100521087646 23.00040054321289 C 2.822400331497192 23.00040054321289 1.948500394821167 22.12650108337402 1.948500394821167 21.05190086364746 L 1.948500394821167 14.99219989776611 C 0.6741004586219788 13.48200035095215 4.455566511296638e-07 11.7548999786377 4.455566511296638e-07 9.999899864196777 C 4.455566511296638e-07 7.32960033416748 1.520100474357605 4.818600177764893 4.279500484466553 2.929500102996826 C 7.039800643920898 1.040400147438049 10.7091007232666 1.983642619052262e-07 14.61150074005127 1.983642619052262e-07 C 17.23050117492676 1.983642619052262e-07 19.80000114440918 0.4806002080440521 22.04190063476562 1.388700246810913 C 22.40970993041992 1.537560224533081 22.76699066162109 1.697180151939392 23.11325073242188 1.867000222206116 L 25.83720016479492 0.2358001917600632 C 26.48880767822266 -0.1539006382226944 27.30599784851074 0.3303007185459137 27.30240058898926 1.104300141334534 L 27.28549957275391 5.021660327911377 C 27.28811073303223 5.024770259857178 27.29079055786133 5.027890205383301 27.29339981079102 5.031000137329102 C 27.47430038452148 7.515000343322754 28.92329978942871 9.745200157165527 31.17060089111328 10.99620056152344 L 31.17060089111328 12.99960041046143 C 31.17060089111328 14.10300064086914 30.27330017089844 15.00030040740967 29.17080116271973 15.00030040740967 L 27.2681999206543 15.00030040740967 C 26.97660064697266 15.3459005355835 26.65080070495605 15.68249988555908 26.30070114135742 16.00110054016113 L 26.30070114135742 21.05190086364746 C 26.30070114135742 22.12650108337402 25.42679977416992 23.00040054321289 24.35219955444336 23.00040054321289 Z" stroke="none" fill="#707070"/>
    </g>
    <g id="Ellipse_20" data-name="Ellipse 20" transform="translate(6111.171 6921)" fill="#fff" stroke="#707070" stroke-width="1">
      <circle cx="1" cy="1" r="1" stroke="none"/>
      <circle cx="1" cy="1" r="0.5" fill="none"/>
    </g>
  </g>
</svg>
